<?xml version="1.0" encoding="utf-8"?>

<svg xmlns="http://www.w3.org/2000/svg" x="0" y="0" enableBackground="new 0 0 1792 1792" version="1.1" viewBox="0 0 1792 1792" xmlSpace="preserve">
	<path d="M983.3 1532.1c-23.2 23.6-55.6 35.9-88.6 33.6-31.9 2.4-63-10-84.6-33.6L261.8 985.8c-45.4-45.4-45.4-119 0-164.4s119-45.4 164.4 0l354.4 354.4V342.1c-.4-63.8 51-115.8 114.8-116.1h.7c64 .4 115.8 52.1 116.1 116.1v833.6l353.7-354.4c45.4-45.4 119-45.4 164.4 0 45.4 45.4 45.4 119 0 164.4l-547 546.4z"></path>
</svg>